<svg width="32" height="32" viewBox="0 0 32 32" fill="none" xmlns="http://www.w3.org/2000/svg">
<path d="M16 9.59072C12.4531 9.59072 9.59058 12.4532 9.59058 16.0001C9.59058 19.547 12.4531 22.4095 16 22.4095C19.5468 22.4095 22.4093 19.547 22.4093 16.0001C22.4093 12.4532 19.5468 9.59072 16 9.59072ZM16 20.1657C13.7062 20.1657 11.8343 18.2938 11.8343 16.0001C11.8343 13.7063 13.7062 11.8345 16 11.8345C18.2937 11.8345 20.1656 13.7063 20.1656 16.0001C20.1656 18.2938 18.2937 20.1657 16 20.1657ZM22.6718 7.83447C21.8437 7.83447 21.175 8.50322 21.175 9.33135C21.175 10.1595 21.8437 10.8282 22.6718 10.8282C23.5 10.8282 24.1687 10.1626 24.1687 9.33135C24.1656 8.5001 23.5 7.83447 22.6718 7.83447Z" fill="#CCCCCC"/>
<path d="M28.4938 16.0001C28.4938 14.2751 28.5094 12.5657 28.4125 10.8438C28.3157 8.84385 27.8594 7.06885 26.3969 5.60635C24.9313 4.14072 23.1594 3.6876 21.1594 3.59072C19.4344 3.49385 17.725 3.50947 16.0031 3.50947C14.2781 3.50947 12.5688 3.49385 10.8469 3.59072C8.8469 3.6876 7.0719 4.14385 5.6094 5.60635C4.14378 7.07197 3.69065 8.84385 3.59378 10.8438C3.4969 12.5688 3.51253 14.2782 3.51253 16.0001C3.51253 17.722 3.4969 19.4345 3.59378 21.1563C3.69065 23.1563 4.1469 24.9313 5.6094 26.3938C7.07503 27.8595 8.8469 28.3126 10.8469 28.4095C12.5719 28.5063 14.2813 28.4907 16.0031 28.4907C17.7282 28.4907 19.4375 28.5063 21.1594 28.4095C23.1594 28.3126 24.9344 27.8563 26.3969 26.3938C27.8625 24.9282 28.3157 23.1563 28.4125 21.1563C28.5125 19.4345 28.4938 17.7251 28.4938 16.0001ZM25.7438 23.3688C25.5157 23.9376 25.2407 24.3626 24.8 24.8001C24.3594 25.2407 23.9375 25.5157 23.3688 25.7438C21.725 26.397 17.8219 26.2501 16 26.2501C14.1782 26.2501 10.2719 26.397 8.62815 25.747C8.0594 25.5189 7.6344 25.2438 7.1969 24.8032C6.75628 24.3626 6.48128 23.9407 6.25315 23.372C5.60315 21.7251 5.75003 17.822 5.75003 16.0001C5.75003 14.1782 5.60315 10.272 6.25315 8.62822C6.48128 8.05947 6.75628 7.63447 7.1969 7.19697C7.63753 6.75947 8.0594 6.48135 8.62815 6.25322C10.2719 5.60322 14.1782 5.7501 16 5.7501C17.8219 5.7501 21.7282 5.60322 23.3719 6.25322C23.9407 6.48135 24.3657 6.75635 24.8032 7.19697C25.2438 7.6376 25.5188 8.05947 25.7469 8.62822C26.3969 10.272 26.25 14.1782 26.25 16.0001C26.25 17.822 26.3969 21.7251 25.7438 23.3688Z" fill="#CCCCCC"/>
</svg>
