<svg width="16" height="16" viewBox="0 0 16 16" fill="none" xmlns="http://www.w3.org/2000/svg">
<path fill-rule="evenodd" clip-rule="evenodd" d="M0 8C0 3.58172 3.58172 0 8 0C12.4183 0 16 3.58172 16 8C16 12.4183 12.4183 16 8 16C3.58172 16 0 12.4183 0 8ZM13.1408 12.052C13.8791 11.1165 14.3676 9.97474 14.5055 8.72727H11.6225C11.5931 9.4994 11.517 10.2424 11.3999 10.9383C12.0295 11.2343 12.6141 11.6099 13.1408 12.052ZM12.1145 13.0909C11.7915 12.8295 11.4433 12.5983 11.0741 12.4015C10.9723 12.7602 10.858 13.0985 10.7323 13.4127C10.6393 13.6452 10.5385 13.8685 10.4298 14.0796C11.0425 13.8346 11.6095 13.4995 12.1145 13.0909ZM10.007 10.4358C10.0872 9.89843 10.1421 9.32575 10.1669 8.72727H5.83314C5.8579 9.32575 5.91278 9.89843 5.99303 10.4358C6.63442 10.27 7.30698 10.1818 8 10.1818C8.69302 10.1818 9.36558 10.27 10.007 10.4358ZM9.71386 11.8629C9.16766 11.7151 8.59311 11.6364 8 11.6364C7.4069 11.6364 6.83234 11.7151 6.28615 11.8629C6.38453 12.2289 6.49601 12.567 6.61822 12.8725C6.86115 13.4798 7.13224 13.9225 7.39605 14.2015C7.65841 14.4789 7.86275 14.5455 8 14.5455C8.13725 14.5455 8.34159 14.4789 8.60395 14.2015C8.86776 13.9225 9.13885 13.4798 9.38178 12.8725C9.50399 12.567 9.61548 12.2289 9.71386 11.8629ZM4.6001 10.9384C4.48302 10.2424 4.40694 9.4994 4.37745 8.72727H1.49449C1.6324 9.97475 2.12087 11.1166 2.85921 12.052C3.38588 11.6099 3.97054 11.2344 4.6001 10.9384ZM3.88556 13.0909C4.20849 12.8295 4.5567 12.5983 4.92594 12.4015C5.02774 12.7602 5.14202 13.0985 5.2677 13.4127C5.36072 13.6452 5.46152 13.8685 5.57024 14.0796C4.95755 13.8346 4.39054 13.4995 3.88556 13.0909ZM11.6225 7.27273H14.5055C14.3676 6.02526 13.8791 4.88345 13.1408 3.948C12.6141 4.39008 12.0295 4.76566 11.3999 5.06166C11.517 5.75757 11.5931 6.5006 11.6225 7.27273ZM12.1145 2.90912C11.7915 3.1705 11.4433 3.40171 11.0741 3.59852C10.9723 3.23976 10.858 2.9015 10.7323 2.5873C10.6393 2.35476 10.5385 2.13151 10.4298 1.92036C11.0425 2.16545 11.6095 2.50048 12.1145 2.90912ZM8 4.36363C8.59311 4.36363 9.16766 4.28485 9.71386 4.13712C9.61547 3.77115 9.50399 3.43303 9.38178 3.12751C9.13885 2.52016 8.86776 2.07747 8.60395 1.79851C8.34159 1.52109 8.13725 1.45455 8 1.45455C7.86275 1.45455 7.65841 1.52109 7.39605 1.79851C7.13224 2.07747 6.86115 2.52016 6.61822 3.12751C6.49601 3.43303 6.38453 3.77114 6.28615 4.13711C6.83234 4.28485 7.4069 4.36363 8 4.36363ZM8 5.81818C7.30698 5.81818 6.63442 5.72996 5.99303 5.5642C5.91278 6.10156 5.8579 6.67425 5.83314 7.27273H10.1669C10.1421 6.67425 10.0872 6.10157 10.007 5.5642C9.36558 5.72996 8.69302 5.81818 8 5.81818ZM5.2677 2.5873C5.14202 2.9015 5.02774 3.23975 4.92595 3.5985C4.5567 3.40169 4.2085 3.17048 3.88556 2.9091C4.39054 2.50047 4.95755 2.16544 5.57024 1.92036C5.46152 2.13151 5.36072 2.35476 5.2677 2.5873ZM4.6001 5.06165C3.97054 4.76565 3.38588 4.39007 2.85922 3.94798C2.12087 4.88343 1.6324 6.02525 1.49449 7.27273H4.37745C4.40694 6.50059 4.48302 5.75756 4.6001 5.06165Z" fill="#CCCCCC"/>
</svg>
