<svg width="13" height="13" viewBox="0 0 13 13" fill="none" xmlns="http://www.w3.org/2000/svg">
<path fill-rule="evenodd" clip-rule="evenodd" d="M5.79921 0C2.59641 0 0 2.59638 0 5.79917C0 9.00196 2.59641 11.5983 5.79921 11.5983C7.03948 11.5983 8.18881 11.209 9.13165 10.5458L10.9378 12.352C11.3283 12.7425 11.9615 12.7425 12.352 12.352C12.7425 11.9614 12.7425 11.3283 12.352 10.9378L10.5459 9.13165C11.209 8.1888 11.5984 7.03946 11.5984 5.79917C11.5984 2.59638 9.002 0 5.79921 0ZM2 5.79917C2 3.70097 3.70097 2 5.79921 2C7.89745 2 9.59841 3.70097 9.59841 5.79917C9.59841 7.89738 7.89745 9.59834 5.79921 9.59834C3.70097 9.59834 2 7.89738 2 5.79917Z" fill="#A0A0A0"/>
</svg>
