<svg width="22" height="18" viewBox="0 0 22 18" fill="none" xmlns="http://www.w3.org/2000/svg">
<path d="M19.3621 4.75881C19.2638 12.1787 14.5189 17.2609 7.43598 17.5801C4.51506 17.7138 2.39896 16.7703 0.557373 15.6004C2.7162 15.9449 5.39312 15.082 6.82481 13.8564C4.7087 13.6506 3.45583 12.5735 2.86961 10.8401C3.48108 10.9458 4.12526 10.9177 4.70619 10.7947C2.79666 10.1555 1.43308 8.97531 1.36262 6.50232C1.89847 6.74628 2.45708 6.97561 3.19921 7.02082C1.77015 6.20797 0.713435 3.23654 1.92372 1.27166C4.04466 3.59639 6.59591 5.49344 10.7851 5.75007C9.73336 1.25404 15.6913 -1.18403 18.1849 1.83775C19.2389 1.63383 20.0969 1.23391 20.9223 0.79863C20.5826 1.84273 19.9284 2.57239 19.1309 3.1561C20.0063 3.03792 20.7812 2.82401 21.4431 2.49693C21.0325 3.34988 20.1346 4.11476 19.3621 4.75881Z" fill="#CCCCCC"/>
</svg>
