<svg width="16" height="16" viewBox="0 0 16 16" fill="none" xmlns="http://www.w3.org/2000/svg">
<path d="M0.00156772 15.6763C0.00156772 15.855 0.150768 16 0.334826 16L15.6641 16C15.8482 16 15.9974 15.8551 15.9974 15.6763V15.2897C16.005 15.1732 16.0206 14.5918 15.6374 13.949C15.3957 13.5437 15.045 13.1936 14.5949 12.9083C14.0503 12.5633 13.3577 12.3133 12.5199 12.1627C12.5137 12.1619 11.8925 12.0796 11.256 11.9171C10.1478 11.634 10.0509 11.3835 10.0503 11.381C10.0437 11.3563 10.0343 11.3325 10.0222 11.3101C10.0132 11.2634 9.99077 11.0875 10.0336 10.6163C10.1423 9.41937 10.7843 8.712 11.3002 8.14366C11.4629 7.96442 11.6165 7.79512 11.7349 7.62909C12.2453 6.91288 12.2927 6.09848 12.2949 6.048C12.2949 5.94573 12.2831 5.86164 12.258 5.7837C12.2079 5.62775 12.1136 5.53057 12.0448 5.45962L12.0443 5.45912C12.0269 5.44126 12.0106 5.42434 11.9972 5.4088C11.9921 5.40286 11.9785 5.38716 11.9909 5.30653C12.0362 5.00973 12.0634 4.76122 12.0764 4.52446C12.0997 4.10265 12.1178 3.47183 12.009 2.85789C11.9956 2.75305 11.9725 2.64232 11.9366 2.5104C11.8216 2.08764 11.637 1.72619 11.3804 1.42789C11.3362 1.37988 10.2634 0.249599 7.14896 0.0176878C6.71831 -0.0143754 6.29259 0.00289637 5.87351 0.0243153C5.7725 0.029309 5.63419 0.0361637 5.50476 0.0697006C5.1832 0.152997 5.09739 0.356812 5.07486 0.470879C5.03751 0.659823 5.10316 0.806799 5.14657 0.904075V0.904084V0.904096C5.15288 0.918197 5.16067 0.935633 5.14707 0.981039C5.07478 1.093 4.96105 1.19394 4.84509 1.28957C4.81158 1.31805 4.03061 1.99144 3.98766 2.87112C3.87187 3.54013 3.88063 4.58248 4.01756 5.30291C4.02551 5.34269 4.03726 5.4016 4.01819 5.44139C3.87095 5.57335 3.70404 5.7229 3.70446 6.06417C3.70623 6.09848 3.7536 6.91288 4.26408 7.62909C4.38231 7.79499 4.53583 7.96417 4.6984 8.14328L4.69878 8.14366V8.1437C5.21465 8.71204 5.85663 9.41937 5.96539 10.6162C6.00817 11.0875 5.98577 11.2634 5.97671 11.3101C5.96463 11.3324 5.9552 11.3562 5.94871 11.381C5.94804 11.3834 5.85153 11.6331 4.74829 11.9156C4.11183 12.0786 3.48526 12.1619 3.46657 12.1646C2.65238 12.302 1.96395 12.5458 1.42043 12.8891C0.971845 13.1724 0.620439 13.5232 0.375955 13.9317C-0.0146638 14.5844 -0.00410385 15.1788 0.00156772 15.2873V15.6763Z" fill="#CCCCCC"/>
</svg>
