<svg width="22" height="15" viewBox="0 0 22 15" fill="none" xmlns="http://www.w3.org/2000/svg">
<path d="M20.8 2.6499C20.95 3.29992 21.1 4.34992 21.15 5.69992L21.2 7.54991V9.49991C21.15 10.8999 21 11.9499 20.85 12.5999C20.75 12.9999 20.5 13.3999 20.2 13.6999C19.9 13.9999 19.5 14.2499 19.05 14.3499C18.4 14.4999 16.9 14.6499 14.5 14.7499L11 14.7999L7.59999 14.7499C5.19999 14.6499 3.69998 14.5499 3.04999 14.3499C2.59999 14.2499 2.19998 13.9999 1.89998 13.6999C1.5 13.3999 1.29998 12.9999 1.14998 12.5999C0.999984 11.8999 0.849984 10.8999 0.799992 9.49991L0.75 7.64992C0.75 7.09991 0.75 6.49991 0.799992 5.7999C0.849984 4.4499 0.999984 3.3999 1.14998 2.74991C1.29998 2.1999 1.5 1.79992 1.84999 1.49992C2.19998 1.19992 2.55 0.94991 3 0.79991C3.64999 0.64991 5.14999 0.49991 7.54999 0.449918L11 0.399902L14.4 0.449918C16.8 0.49991 18.35 0.64991 19 0.79991C19.45 0.899918 19.85 1.1499 20.15 1.4499C20.45 1.79992 20.7 2.1999 20.8 2.6499ZM8.89999 10.6999L14.25 7.64992L8.89999 4.5999V10.6999Z" fill="#CCCCCC"/>
</svg>
